<svg width="150" height="40" viewBox="0 0 150 40" fill="none" xmlns="http://www.w3.org/2000/svg">
<path d="M14.174 34C11.6242 34 9.44935 33.6611 7.64947 32.9832C5.8496 32.2812 4.3797 31.3371 3.23978 30.1508C2.12985 28.9404 1.30491 27.5726 0.764947 26.0475C0.254982 24.4981 0 22.8762 0 21.1816V8H7.37949V21.1816C7.37949 22.1499 7.49948 23.094 7.73947 24.014C7.97945 24.9097 8.36942 25.7086 8.90939 26.4106C9.44935 27.1127 10.1393 27.6695 10.9792 28.081C11.8492 28.4926 12.9141 28.6983 14.174 28.6983C15.4639 28.6983 16.5439 28.4926 17.4138 28.081C18.2837 27.6453 18.9737 27.0764 19.4837 26.3743C19.9936 25.648 20.3686 24.8371 20.6086 23.9413C20.8486 23.0456 20.9686 22.1257 20.9686 21.1816V8H28.3481V21.1816C28.3481 22.973 28.0631 24.6434 27.4931 26.1927C26.9531 27.7421 26.1132 29.1099 24.9733 30.2961C23.8334 31.4581 22.3635 32.3659 20.5636 33.0196C18.7937 33.6732 16.6639 34 14.174 34Z" fill="#1964E7"/>
<path d="M32.2659 29.3156L48.5548 13.2291H32.8959V8H57.4192V12.4665L41.8953 28.5531H57.5992V33.7821H32.2659V29.3156Z" fill="#1964E7"/>
<path d="M69.5684 19.0391V33.7821H62.1889V8H68.0385L82.8425 23.1788V8H90.222V33.7821H84.1924L69.5684 19.0391Z" fill="#1964E7"/>
<path d="M104.386 8H112.351L123.33 33.7821H115.771L113.296 28.0084H103.352L100.922 33.7821H93.3623L104.386 8ZM112.081 23.905L108.346 13.9916L104.521 23.905H112.081Z" fill="#1964E7"/>
<path d="M128.087 8L134.971 19.4022L141.946 8H150L138.616 24.9944V33.7821H131.281V24.9218L120.077 8H128.087Z" fill="#1964E7"/>
</svg>
